<?xml version="1.0" encoding="utf-8"?>
<!-- Generator: Adobe Illustrator 21.0.0, SVG Export Plug-In . SVG Version: 6.00 Build 0)  -->
<svg version="1.1" id="Layer_1" xmlns="http://www.w3.org/2000/svg" xmlns:xlink="http://www.w3.org/1999/xlink" x="0px" y="0px"
	 viewBox="0 0 1000 1000" style="enable-background:new 0 0 1000 1000;" xml:space="preserve">
<style type="text/css">
	.st0{fill:#D63031;}
</style>
<path id="XMLID_2_" class="st0" d="M845,263.6H155c-10.8,0-19.6-10.9-19.6-24.2V206c0-13.3,8.8-24.2,19.6-24.2h690
	c10.8,0,19.6,10.9,19.6,24.2v33.4C864.6,252.7,855.7,263.6,845,263.6z"/>
<path id="XMLID_3_" class="st0" d="M845,540.9H155c-10.8,0-19.6-10.9-19.6-24.2v-33.4c0-13.3,8.8-24.2,19.6-24.2h690
	c10.8,0,19.6,10.9,19.6,24.2v33.4C864.6,530,855.7,540.9,845,540.9z"/>
<path id="XMLID_4_" class="st0" d="M845,818.2H155c-10.8,0-19.6-10.9-19.6-24.2v-33.4c0-13.3,8.8-24.2,19.6-24.2h690
	c10.8,0,19.6,10.9,19.6,24.2V794C864.6,807.3,855.7,818.2,845,818.2z"/>
</svg>
