<?xml version="1.0" encoding="utf-8"?>
<!-- Generator: Adobe Illustrator 19.0.0, SVG Export Plug-In . SVG Version: 6.00 Build 0)  -->
<svg version="1.1" id="Layer_1" xmlns="http://www.w3.org/2000/svg" xmlns:xlink="http://www.w3.org/1999/xlink" x="0px" y="0px"
	 viewBox="0 0 1000 1000" style="enable-background:new 0 0 1000 1000;" xml:space="preserve">
<style type="text/css">
	.st0{fill:#FFFDFD;}
	.st1{fill:#FFFFFF;}
</style>
<path id="XMLID_1_" class="st0" d="M228.2,826.3l601.4-602.9c9.4-9.4,9.4-24.8,0-34.2L806,165.6c-9.4-9.4-24.8-9.4-34.2,0
	l-601.4,603c-9.4,9.4-9.4,24.8,0,34.2l23.6,23.6C203.4,835.8,218.8,835.8,228.2,826.3z"/>
<path id="XMLID_5_" class="st1" d="M771.8,826.3L170.4,223.4c-9.4-9.4-9.4-24.8,0-34.2l23.6-23.6c9.4-9.4,24.8-9.4,34.2,0
	l601.4,602.9c9.4,9.4,9.4,24.8,0,34.2L806,826.4C796.6,835.8,781.2,835.8,771.8,826.3z"/>
</svg>
